<svg width="245" height="224" viewBox="0 0 245 224" fill="none" xmlns="http://www.w3.org/2000/svg">
<g filter="url(#filter0_f_809_4)">
<ellipse cx="133" cy="112" rx="113" ry="92" fill="url(#paint0_radial_809_4)"/>
</g>
<circle cx="135" cy="93" r="91.5" stroke="#C4EE4A"/>
<circle cx="131" cy="99" r="91.5" stroke="#C4EE4A"/>
<g filter="url(#filter1_d_809_4)">
<path d="M50.4548 40.2798V67.2844H44V40.2798H50.4548ZM60.8633 51.5193V56.527H48.6158V51.5193H60.8633ZM61.9115 40.2798V45.306H48.6158V40.2798H61.9115Z" fill="#C4EE4A" fill-opacity="0.8" shape-rendering="crispEdges"/>
<path d="M70.0765 52.187V67.2844H63.8792V47.2164H69.6719L70.0765 52.187ZM75.9611 47.068L75.8508 52.8733C75.6056 52.8485 75.2746 52.8176 74.8578 52.7805C74.4409 52.7434 74.0915 52.7249 73.8096 52.7249C73.0862 52.7249 72.461 52.8114 71.9338 52.9845C71.4189 53.1453 70.9898 53.3926 70.6465 53.7264C70.3155 54.0479 70.0703 54.456 69.911 54.9505C69.7638 55.4451 69.6964 56.0201 69.7087 56.6754L68.5869 55.9335C68.5869 54.5858 68.7156 53.3617 68.9731 52.2612C69.2428 51.1484 69.6229 50.1901 70.1132 49.3864C70.6036 48.5703 71.1982 47.9459 71.897 47.5131C72.5958 47.068 73.3805 46.8454 74.2509 46.8454C74.5574 46.8454 74.8578 46.864 75.152 46.9011C75.4585 46.9382 75.7282 46.9938 75.9611 47.068Z" fill="#C4EE4A" fill-opacity="0.8" shape-rendering="crispEdges"/>
<path d="M87.3627 67.6553C85.7444 67.6553 84.2978 67.4019 83.0228 66.8949C81.7477 66.3756 80.6689 65.6646 79.7862 64.762C78.9157 63.8594 78.2476 62.8207 77.7817 61.6461C77.3281 60.4714 77.1013 59.2287 77.1013 57.9181V57.2133C77.1013 55.7419 77.3036 54.3818 77.7082 53.1329C78.1127 51.8717 78.7135 50.7713 79.5103 49.8315C80.3072 48.8918 81.3064 48.1623 82.5078 47.643C83.7093 47.1113 85.1069 46.8454 86.7007 46.8454C88.1105 46.8454 89.3733 47.0742 90.4889 47.5317C91.6046 47.9892 92.5486 48.6445 93.3209 49.4977C94.1056 50.3509 94.7002 51.3833 95.1047 52.5951C95.5216 53.8068 95.73 55.1669 95.73 56.6754V59.2164H79.4736V55.3029H89.6798V54.8207C89.6921 54.153 89.5756 53.5842 89.3304 53.1144C89.0975 52.6445 88.7542 52.2859 88.3006 52.0386C87.847 51.7913 87.2953 51.6677 86.6455 51.6677C85.9712 51.6677 85.4134 51.8161 84.9721 52.1128C84.543 52.4096 84.2058 52.8176 83.9606 53.3369C83.7277 53.8439 83.5622 54.4312 83.4641 55.0989C83.366 55.7666 83.317 56.4714 83.317 57.2133V57.9181C83.317 58.66 83.4151 59.3338 83.6112 59.9397C83.8196 60.5456 84.1139 61.0649 84.4939 61.4977C84.8862 61.9181 85.3521 62.2457 85.8915 62.4807C86.4432 62.7156 87.0685 62.8331 87.7673 62.8331C88.6132 62.8331 89.4469 62.6723 90.2683 62.3508C91.0897 62.0294 91.7946 61.4977 92.3831 60.7558L95.1967 64.1314C94.7921 64.7125 94.2159 65.2751 93.4681 65.8192C92.7325 66.3632 91.8498 66.8083 90.82 67.1546C89.7901 67.4884 88.6377 67.6553 87.3627 67.6553Z" fill="#C4EE4A" fill-opacity="0.8" shape-rendering="crispEdges"/>
<path d="M107.886 67.6553C106.267 67.6553 104.821 67.4019 103.546 66.8949C102.271 66.3756 101.192 65.6646 100.309 64.762C99.4385 63.8594 98.7704 62.8207 98.3045 61.6461C97.8509 60.4714 97.6241 59.2287 97.6241 57.9181V57.2133C97.6241 55.7419 97.8264 54.3818 98.231 53.1329C98.6355 51.8717 99.2363 50.7713 100.033 49.8315C100.83 48.8918 101.829 48.1623 103.031 47.643C104.232 47.1113 105.63 46.8454 107.223 46.8454C108.633 46.8454 109.896 47.0742 111.012 47.5317C112.127 47.9892 113.071 48.6445 113.844 49.4977C114.628 50.3509 115.223 51.3833 115.628 52.5951C116.044 53.8068 116.253 55.1669 116.253 56.6754V59.2164H99.9964V55.3029H110.203V54.8207C110.215 54.153 110.098 53.5842 109.853 53.1144C109.62 52.6445 109.277 52.2859 108.823 52.0386C108.37 51.7913 107.818 51.6677 107.168 51.6677C106.494 51.6677 105.936 51.8161 105.495 52.1128C105.066 52.4096 104.729 52.8176 104.483 53.3369C104.25 53.8439 104.085 54.4312 103.987 55.0989C103.889 55.7666 103.84 56.4714 103.84 57.2133V57.9181C103.84 58.66 103.938 59.3338 104.134 59.9397C104.342 60.5456 104.637 61.0649 105.017 61.4977C105.409 61.9181 105.875 62.2457 106.414 62.4807C106.966 62.7156 107.591 62.8331 108.29 62.8331C109.136 62.8331 109.97 62.6723 110.791 62.3508C111.612 62.0294 112.317 61.4977 112.906 60.7558L115.719 64.1314C115.315 64.7125 114.739 65.2751 113.991 65.8192C113.255 66.3632 112.373 66.8083 111.343 67.1546C110.313 67.4884 109.161 67.6553 107.886 67.6553Z" fill="#C4EE4A" fill-opacity="0.8" shape-rendering="crispEdges"/>
<path d="M142.237 60.1066C142.237 59.6862 142.176 59.3091 142.053 58.9753C141.931 58.6291 141.704 58.3076 141.373 58.0108C141.042 57.7141 140.564 57.4173 139.939 57.1206C139.326 56.8114 138.516 56.49 137.511 56.1561C136.334 55.7604 135.2 55.3153 134.109 54.8207C133.018 54.3138 132.043 53.7264 131.185 53.0587C130.327 52.3787 129.647 51.5873 129.144 50.6847C128.641 49.7697 128.39 48.7063 128.39 47.4946C128.39 46.3323 128.647 45.2875 129.162 44.3601C129.677 43.4204 130.394 42.6229 131.314 41.9675C132.246 41.2998 133.337 40.7929 134.587 40.4467C135.838 40.0881 137.205 39.9088 138.688 39.9088C140.65 39.9088 142.378 40.255 143.874 40.9474C145.382 41.6275 146.559 42.5981 147.405 43.8594C148.263 45.1082 148.692 46.5858 148.692 48.2921H142.274C142.274 47.6121 142.133 47.0124 141.851 46.493C141.581 45.9737 141.171 45.5657 140.619 45.2689C140.067 44.9722 139.375 44.8238 138.541 44.8238C137.732 44.8238 137.051 44.9474 136.5 45.1947C135.948 45.442 135.531 45.7759 135.249 46.1963C134.967 46.6043 134.826 47.0556 134.826 47.5502C134.826 47.9583 134.937 48.3292 135.157 48.6631C135.39 48.9845 135.715 49.2875 136.132 49.5719C136.561 49.8563 137.076 50.1283 137.677 50.3879C138.29 50.6476 138.976 50.9011 139.736 51.1484C141.158 51.6059 142.421 52.119 143.525 52.6878C144.64 53.2442 145.578 53.881 146.338 54.5981C147.111 55.3029 147.693 56.1066 148.085 57.0093C148.49 57.9119 148.692 58.932 148.692 60.0696C148.692 61.2813 148.459 62.357 147.993 63.2968C147.527 64.2365 146.859 65.034 145.989 65.6893C145.118 66.3323 144.076 66.8207 142.863 67.1546C141.649 67.4884 140.294 67.6553 138.798 67.6553C137.425 67.6553 136.071 67.4822 134.734 67.136C133.41 66.7774 132.209 66.2334 131.13 65.5039C130.051 64.762 129.187 63.8161 128.537 62.6662C127.9 61.5039 127.581 60.1252 127.581 58.5301H134.054C134.054 59.3215 134.158 59.9892 134.367 60.5332C134.575 61.0773 134.881 61.5162 135.286 61.8501C135.691 62.1716 136.187 62.4065 136.776 62.5549C137.364 62.6909 138.038 62.7589 138.798 62.7589C139.62 62.7589 140.282 62.6414 140.785 62.4065C141.287 62.1592 141.655 61.8377 141.888 61.442C142.121 61.034 142.237 60.5889 142.237 60.1066Z" fill="#C4EE4A" fill-opacity="0.8" shape-rendering="crispEdges"/>
<path d="M157.979 51.0742V75H151.782V47.2164H157.556L157.979 51.0742ZM170.19 57.0093V57.3988C170.19 58.8578 170.024 60.2117 169.693 61.4606C169.362 62.7094 168.872 63.7975 168.222 64.7249C167.572 65.6522 166.763 66.3756 165.794 66.8949C164.838 67.4019 163.729 67.6553 162.466 67.6553C161.277 67.6553 160.253 67.3895 159.395 66.8578C158.537 66.3261 157.819 65.5904 157.243 64.6507C156.667 63.711 156.201 62.6352 155.846 61.4235C155.49 60.2117 155.208 58.932 155 57.5842V57.0835C155.208 55.6368 155.49 54.2952 155.846 53.0587C156.201 51.8099 156.667 50.7218 157.243 49.7944C157.819 48.8671 158.53 48.1437 159.376 47.6244C160.235 47.1051 161.258 46.8454 162.447 46.8454C163.71 46.8454 164.82 47.0866 165.776 47.5688C166.745 48.051 167.554 48.7434 168.203 49.6461C168.865 50.5363 169.362 51.6059 169.693 52.8547C170.024 54.1036 170.19 55.4884 170.19 57.0093ZM163.992 57.3988V57.0093C163.992 56.2303 163.937 55.5193 163.827 54.8764C163.716 54.221 163.539 53.6522 163.293 53.17C163.06 52.6878 162.748 52.3168 162.356 52.0572C161.963 51.7975 161.479 51.6677 160.903 51.6677C160.241 51.6677 159.683 51.7728 159.229 51.983C158.788 52.1808 158.432 52.49 158.163 52.9104C157.905 53.3184 157.721 53.8315 157.611 54.4498C157.513 55.0556 157.47 55.7666 157.482 56.5827V58.1036C157.458 59.0433 157.55 59.8717 157.758 60.5889C157.967 61.2937 158.328 61.8439 158.843 62.2396C159.358 62.6352 160.057 62.8331 160.94 62.8331C161.528 62.8331 162.018 62.6971 162.411 62.425C162.803 62.1406 163.116 61.7512 163.349 61.2566C163.582 60.7496 163.747 60.1685 163.845 59.5131C163.943 58.8578 163.992 58.153 163.992 57.3988Z" fill="#C4EE4A" fill-opacity="0.8" shape-rendering="crispEdges"/>
<path d="M179.495 47.2164V67.2844H173.279V47.2164H179.495ZM172.911 42.0417C172.911 41.1515 173.23 40.4219 173.867 39.8532C174.505 39.2844 175.332 39 176.35 39C177.368 39 178.195 39.2844 178.833 39.8532C179.47 40.4219 179.789 41.1515 179.789 42.0417C179.789 42.932 179.47 43.6615 178.833 44.2303C178.195 44.7991 177.368 45.0835 176.35 45.0835C175.332 45.0835 174.505 44.7991 173.867 44.2303C173.23 43.6615 172.911 42.932 172.911 42.0417Z" fill="#C4EE4A" fill-opacity="0.8" shape-rendering="crispEdges"/>
<path d="M189.407 51.5008V67.2844H183.209V47.2164H189.02L189.407 51.5008ZM188.671 56.5641L187.218 56.6012C187.218 55.068 187.402 53.7017 187.77 52.5023C188.138 51.2906 188.659 50.2643 189.333 49.4235C190.007 48.5827 190.81 47.9459 191.742 47.5131C192.686 47.068 193.734 46.8454 194.887 46.8454C195.806 46.8454 196.646 46.9815 197.406 47.2535C198.178 47.5255 198.841 47.9645 199.392 48.5703C199.956 49.1762 200.385 49.9799 200.679 50.9815C200.986 51.9706 201.139 53.1947 201.139 54.6538V67.2844H194.905V54.6352C194.905 53.8315 194.795 53.2195 194.574 52.7991C194.353 52.3663 194.035 52.0696 193.618 51.9088C193.201 51.7481 192.692 51.6677 192.092 51.6677C191.454 51.6677 190.915 51.7913 190.473 52.0386C190.032 52.2859 189.676 52.6321 189.407 53.0773C189.149 53.51 188.959 54.0232 188.837 54.6167C188.726 55.2102 188.671 55.8594 188.671 56.5641Z" fill="#C4EE4A" fill-opacity="0.8" shape-rendering="crispEdges"/>
<path d="M215.005 61.6461C215.005 61.2998 214.889 61.0031 214.656 60.7558C214.435 60.4961 214.043 60.2612 213.479 60.051C212.915 59.8284 212.124 59.6059 211.106 59.3833C210.138 59.1731 209.225 58.8949 208.366 58.5487C207.52 58.2025 206.779 57.7821 206.141 57.2875C205.504 56.7929 205.001 56.2056 204.633 55.5255C204.278 54.8454 204.1 54.0665 204.1 53.1886C204.1 52.3354 204.278 51.5317 204.633 50.7774C205.001 50.0108 205.534 49.3369 206.233 48.7558C206.944 48.1623 207.809 47.6986 208.826 47.3648C209.844 47.0185 211.002 46.8454 212.302 46.8454C214.092 46.8454 215.636 47.1236 216.936 47.6801C218.235 48.2241 219.235 48.9907 219.933 49.9799C220.644 50.9567 221 52.0881 221 53.374H214.803C214.803 52.8671 214.717 52.4343 214.545 52.0757C214.386 51.7172 214.122 51.4451 213.755 51.2597C213.387 51.0618 212.896 50.9629 212.283 50.9629C211.854 50.9629 211.462 51.0433 211.106 51.204C210.763 51.3648 210.487 51.5873 210.279 51.8717C210.07 52.1561 209.966 52.49 209.966 52.8733C209.966 53.1453 210.028 53.3926 210.15 53.6151C210.285 53.8253 210.487 54.0232 210.757 54.2087C211.027 54.3818 211.37 54.5425 211.787 54.6909C212.204 54.8269 212.706 54.9505 213.295 55.0618C214.631 55.3091 215.882 55.6615 217.046 56.119C218.211 56.5765 219.155 57.2257 219.878 58.0665C220.614 58.9073 220.982 60.0386 220.982 61.4606C220.982 62.3508 220.779 63.1731 220.375 63.9274C219.97 64.6692 219.388 65.3246 218.628 65.8934C217.868 66.4498 216.954 66.8825 215.888 67.1917C214.821 67.5008 213.62 67.6553 212.283 67.6553C210.383 67.6553 208.777 67.3153 207.465 66.6352C206.153 65.9428 205.16 65.0773 204.486 64.0386C203.824 62.9876 203.493 61.9243 203.493 60.8485H209.267C209.292 61.4668 209.439 61.9737 209.709 62.3694C209.991 62.7651 210.365 63.0556 210.831 63.2411C211.296 63.4266 211.836 63.5193 212.449 63.5193C213.013 63.5193 213.479 63.4389 213.846 63.2782C214.227 63.1175 214.515 62.9011 214.711 62.6291C214.907 62.3447 215.005 62.017 215.005 61.6461Z" fill="#C4EE4A" fill-opacity="0.8" shape-rendering="crispEdges"/>
</g>
<g filter="url(#filter2_d_809_4)">
<path d="M87.8286 114.411L71.7421 110.495L77.0242 64.2433H128.105V80.5307H93.5309L91.5501 98.4967C92.5105 97.9164 94.1311 97.2326 96.4121 96.4452C98.733 95.6163 101.294 95.2019 104.095 95.2019C108.417 95.2019 112.238 95.8857 115.56 97.2533C118.921 98.5795 121.762 100.548 124.083 103.159C126.404 105.729 128.145 108.899 129.305 112.67C130.506 116.442 131.106 120.752 131.106 125.601C131.106 129.497 130.486 133.268 129.245 136.915C128.045 140.521 126.184 143.774 123.663 146.675C121.182 149.535 118.041 151.814 114.239 153.513C110.438 155.171 105.936 156 100.734 156C96.8522 156 93.0707 155.378 89.3892 154.135C85.7077 152.892 82.3864 151.11 79.4252 148.789C76.504 146.426 74.1831 143.588 72.4624 140.272C70.7817 136.915 69.9614 133.164 70.0014 129.02H90.3496C90.4697 131.217 90.9699 133.123 91.8502 134.739C92.7306 136.356 93.911 137.62 95.3916 138.531C96.9123 139.402 98.653 139.837 100.614 139.837C102.615 139.837 104.275 139.422 105.596 138.594C106.916 137.765 107.957 136.625 108.717 135.174C109.477 133.724 110.018 132.066 110.338 130.201C110.658 128.295 110.818 126.285 110.818 124.171C110.818 121.933 110.578 119.923 110.098 118.141C109.657 116.359 108.937 114.846 107.937 113.603C106.936 112.318 105.636 111.344 104.035 110.681C102.474 110.018 100.594 109.686 98.3929 109.686C95.4717 109.686 93.1707 110.205 91.4901 111.241C89.8094 112.277 88.5889 113.334 87.8286 114.411Z" fill="#C4EE4A"/>
<path d="M193 101.232V117.768C193 124.275 192.26 129.932 190.779 134.739C189.339 139.547 187.258 143.525 184.537 146.675C181.855 149.825 178.654 152.166 174.933 153.7C171.211 155.233 167.11 156 162.628 156C159.026 156 155.665 155.523 152.544 154.57C149.422 153.576 146.601 152.084 144.08 150.094C141.599 148.063 139.458 145.535 137.658 142.51C135.857 139.485 134.476 135.92 133.516 131.818C132.556 127.673 132.075 122.99 132.075 117.768V101.232C132.075 94.6838 132.796 89.0267 134.236 84.2607C135.717 79.4532 137.818 75.4746 140.539 72.3249C143.26 69.1751 146.481 66.8336 150.203 65.3001C153.924 63.7667 158.026 63 162.508 63C166.109 63 169.45 63.4973 172.532 64.492C175.653 65.4452 178.474 66.9372 180.995 68.9679C183.516 70.9572 185.657 73.4646 187.418 76.49C189.218 79.5154 190.599 83.1003 191.559 87.2447C192.52 91.3476 193 96.01 193 101.232ZM172.772 120.317V98.5588C172.772 95.6578 172.612 93.1297 172.292 90.9746C172.012 88.8195 171.571 86.996 170.971 85.504C170.411 84.012 169.711 82.8102 168.87 81.8984C168.03 80.9452 167.07 80.2614 165.989 79.8469C164.949 79.391 163.788 79.1631 162.508 79.1631C160.907 79.1631 159.466 79.5154 158.186 80.2199C156.945 80.883 155.885 81.9606 155.005 83.4525C154.124 84.9445 153.444 86.9338 152.964 89.4205C152.524 91.9071 152.304 94.9532 152.304 98.5588V120.317C152.304 123.259 152.444 125.829 152.724 128.025C153.044 130.18 153.484 132.025 154.044 133.558C154.645 135.05 155.365 136.273 156.205 137.226C157.045 138.138 158.006 138.801 159.086 139.215C160.167 139.63 161.347 139.837 162.628 139.837C164.188 139.837 165.589 139.505 166.829 138.842C168.07 138.179 169.13 137.102 170.011 135.61C170.931 134.076 171.611 132.066 172.052 129.58C172.532 127.051 172.772 123.964 172.772 120.317Z" fill="#C4EE4A"/>
</g>
<defs>
<filter id="filter0_f_809_4" x="0" y="0" width="266" height="224" filterUnits="userSpaceOnUse" color-interpolation-filters="sRGB">
<feFlood flood-opacity="0" result="BackgroundImageFix"/>
<feBlend mode="normal" in="SourceGraphic" in2="BackgroundImageFix" result="shape"/>
<feGaussianBlur stdDeviation="10" result="effect1_foregroundBlur_809_4"/>
</filter>
<filter id="filter1_d_809_4" x="40" y="36" width="197" height="56" filterUnits="userSpaceOnUse" color-interpolation-filters="sRGB">
<feFlood flood-opacity="0" result="BackgroundImageFix"/>
<feColorMatrix in="SourceAlpha" type="matrix" values="0 0 0 0 0 0 0 0 0 0 0 0 0 0 0 0 0 0 127 0" result="hardAlpha"/>
<feOffset dx="6" dy="7"/>
<feGaussianBlur stdDeviation="5"/>
<feComposite in2="hardAlpha" operator="out"/>
<feColorMatrix type="matrix" values="0 0 0 0 0 0 0 0 0 0 0 0 0 0 0 0 0 0 0.25 0"/>
<feBlend mode="normal" in2="BackgroundImageFix" result="effect1_dropShadow_809_4"/>
<feBlend mode="normal" in="SourceGraphic" in2="effect1_dropShadow_809_4" result="shape"/>
</filter>
<filter id="filter2_d_809_4" x="66" y="60" width="143" height="113" filterUnits="userSpaceOnUse" color-interpolation-filters="sRGB">
<feFlood flood-opacity="0" result="BackgroundImageFix"/>
<feColorMatrix in="SourceAlpha" type="matrix" values="0 0 0 0 0 0 0 0 0 0 0 0 0 0 0 0 0 0 127 0" result="hardAlpha"/>
<feOffset dx="6" dy="7"/>
<feGaussianBlur stdDeviation="5"/>
<feComposite in2="hardAlpha" operator="out"/>
<feColorMatrix type="matrix" values="0 0 0 0 0 0 0 0 0 0 0 0 0 0 0 0 0 0 0.25 0"/>
<feBlend mode="normal" in2="BackgroundImageFix" result="effect1_dropShadow_809_4"/>
<feBlend mode="normal" in="SourceGraphic" in2="effect1_dropShadow_809_4" result="shape"/>
</filter>
<radialGradient id="paint0_radial_809_4" cx="0" cy="0" r="1" gradientUnits="userSpaceOnUse" gradientTransform="translate(133 112) rotate(90) scale(92 113)">
<stop stop-color="white"/>
<stop offset="0.0885417" stop-color="#95EDFF"/>
<stop offset="1" stop-color="#95EDFF" stop-opacity="0"/>
</radialGradient>
</defs>
</svg>
