<svg width="266" height="224" viewBox="0 0 266 224" fill="none" xmlns="http://www.w3.org/2000/svg">
<circle cx="137" cy="106" r="91.5" stroke="#C4EE4A"/>
<circle cx="133" cy="112" r="91.5" stroke="#C4EE4A"/>
<g filter="url(#filter0_f_809_5)">
<ellipse cx="133" cy="112" rx="113" ry="92" fill="url(#paint0_radial_809_5)"/>
</g>
<g opacity="0.8" filter="url(#filter1_d_809_5)">
<path d="M116.74 75.2281C117.661 75.2281 118.552 75.1594 119.414 75.0221C120.276 74.8847 121.099 74.6591 121.882 74.3452L123.146 82.2612C121.951 82.5358 120.697 82.7516 119.385 82.9086C118.092 83.0655 116.77 83.144 115.418 83.144C112.872 83.144 110.531 82.8105 108.396 82.1435C106.261 81.4568 104.4 80.4367 102.813 79.083C101.246 77.7098 100.022 76.0128 99.1408 73.9921C98.2789 71.9715 97.848 69.6173 97.848 66.9296V56.6301C97.848 53.7658 98.2887 51.2547 99.1701 49.0967C100.071 46.9191 101.344 45.0946 102.99 43.6232C104.635 42.1519 106.584 41.0434 108.837 40.298C111.109 39.5525 113.616 39.1797 116.358 39.1797C117.494 39.1797 118.631 39.268 119.767 39.4446C120.922 39.6015 122.049 39.8173 123.146 40.092L121.882 48.0373C121.197 47.7627 120.413 47.5469 119.532 47.3899C118.67 47.2133 117.827 47.1251 117.005 47.1251C115.594 47.1251 114.341 47.3016 113.244 47.6548C112.147 47.9883 111.226 48.5278 110.482 49.2733C109.738 50.0187 109.17 50.9898 108.778 52.1865C108.386 53.3833 108.19 54.8448 108.19 56.5712V66.9296C108.19 68.5971 108.396 69.9704 108.807 71.0494C109.219 72.1284 109.796 72.972 110.541 73.5801C111.305 74.1883 112.206 74.6199 113.244 74.8749C114.302 75.1104 115.467 75.2281 116.74 75.2281ZM117.328 54.6584V59.3374H93V54.6584H117.328ZM117.328 62.9275V67.6358H93V62.9275H117.328Z" fill="#C4EE4A"/>
<path d="M146.21 39.7388L131.578 86.2633H124.526L139.159 39.7388H146.21Z" fill="#C4EE4A"/>
<path d="M167.512 33V41.5633H162.84V33H167.512ZM166.924 81.0546V89H162.252V81.0546H166.924ZM168.893 71.226C168.893 70.147 168.726 69.2543 168.393 68.5481C168.06 67.8418 167.522 67.2239 166.777 66.6942C166.033 66.1645 165.044 65.6348 163.81 65.1051C161.205 64.0457 158.903 62.9569 156.905 61.8387C154.927 60.7204 153.369 59.3276 152.233 57.66C151.117 55.9925 150.559 53.8247 150.559 51.1566C150.559 48.7239 151.156 46.6052 152.351 44.8003C153.565 42.9954 155.23 41.6026 157.346 40.6217C159.481 39.6211 161.939 39.1209 164.721 39.1209C166.836 39.1209 168.765 39.4348 170.509 40.0625C172.252 40.6903 173.76 41.6026 175.033 42.7993C176.307 43.9764 177.286 45.4281 177.972 47.1545C178.657 48.8613 179 50.8035 179 52.9811H169.098C169.098 51.8628 168.981 50.9016 168.746 50.0972C168.53 49.2929 168.217 48.6357 167.806 48.1256C167.394 47.6155 166.914 47.2428 166.366 47.0074C165.817 46.7523 165.22 46.6248 164.574 46.6248C163.594 46.6248 162.801 46.8406 162.194 47.2722C161.586 47.6842 161.146 48.2335 160.872 48.9201C160.597 49.6068 160.46 50.3719 160.46 51.2155C160.46 52.0983 160.607 52.8732 160.901 53.5402C161.214 54.1876 161.743 54.7958 162.488 55.3647C163.232 55.914 164.25 56.4829 165.543 57.0715C168.09 58.1505 170.362 59.2687 172.36 60.4262C174.358 61.5836 175.925 63.006 177.061 64.6931C178.216 66.3607 178.794 68.5187 178.794 71.1671C178.794 73.7175 178.197 75.8951 177.002 77.6999C175.807 79.4852 174.142 80.8487 172.007 81.7903C169.872 82.732 167.404 83.2028 164.603 83.2028C162.723 83.2028 160.852 82.9576 158.991 82.4672C157.15 81.9767 155.465 81.1822 153.937 80.0836C152.429 78.9653 151.225 77.4841 150.324 75.64C149.423 73.7959 148.972 71.53 148.972 68.8424H158.874C158.874 70.1568 159.03 71.2554 159.344 72.1382C159.657 73.021 160.078 73.7273 160.607 74.257C161.156 74.767 161.773 75.1398 162.458 75.3752C163.144 75.591 163.859 75.6989 164.603 75.6989C165.602 75.6989 166.415 75.5027 167.042 75.1104C167.668 74.6984 168.129 74.1589 168.423 73.4919C168.736 72.8052 168.893 72.0499 168.893 71.226Z" fill="#C4EE4A"/>
</g>
<g filter="url(#filter2_d_809_5)">
<path d="M60.086 117.584H70.4646C73.1225 117.584 75.2952 117.118 76.9828 116.188C78.7126 115.215 79.9993 113.861 80.8431 112.126C81.6869 110.349 82.1088 108.255 82.1088 105.844C82.1088 103.982 81.708 102.269 80.9064 100.703C80.147 99.1381 78.9657 97.89 77.3625 96.9593C75.7593 95.9862 73.7131 95.4997 71.224 95.4997C69.5364 95.4997 67.891 95.8593 66.2878 96.5785C64.6847 97.2554 63.3557 98.2285 62.301 99.4977C61.2884 100.767 60.7822 102.311 60.7822 104.13H39.3922C39.3922 98.8842 40.8267 94.3997 43.6955 90.6767C46.6066 86.9114 50.4247 84.0345 55.1499 82.0461C59.9173 80.0154 65.0433 79 70.5279 79C77.0672 79 82.8049 80.0154 87.741 82.0461C92.6772 84.0345 96.5164 86.996 99.2587 90.9305C102.043 94.8228 103.435 99.6457 103.435 105.399C103.435 108.572 102.697 111.555 101.22 114.347C99.7439 117.14 97.6766 119.593 95.0187 121.709C92.3607 123.824 89.2387 125.495 85.6527 126.722C82.1088 127.907 78.2274 128.499 74.0085 128.499H60.086V117.584ZM60.086 133.512V122.851H74.0085C78.6071 122.851 82.8049 123.38 86.6019 124.438C90.3989 125.453 93.6686 126.976 96.4109 129.007C99.1532 131.037 101.263 133.555 102.739 136.558C104.216 139.52 104.954 142.926 104.954 146.776C104.954 151.091 104.089 154.941 102.36 158.325C100.63 161.71 98.2039 164.566 95.082 166.892C91.96 169.219 88.3106 170.996 84.1339 172.223C79.9571 173.408 75.4218 174 70.5279 174C66.6886 174 62.8494 173.492 59.0102 172.477C55.171 171.419 51.6693 169.812 48.5051 167.654C45.3409 165.454 42.7885 162.662 40.8478 159.277C38.9493 155.85 38 151.768 38 147.029H59.3899C59.3899 148.976 59.9173 150.752 60.972 152.36C62.0689 153.925 63.5244 155.173 65.3386 156.104C67.1527 157.035 69.1145 157.5 71.224 157.5C73.8397 157.5 76.0546 157.014 77.8688 156.041C79.7251 155.025 81.1384 153.672 82.1088 151.979C83.0791 150.287 83.5643 148.404 83.5643 146.331C83.5643 143.201 83.0369 140.705 81.9822 138.843C80.9697 136.982 79.472 135.628 77.4891 134.782C75.5484 133.935 73.2069 133.512 70.4646 133.512H60.086Z" fill="#C4EE4A"/>
<path d="M169.819 118.092V134.972C169.819 141.614 169.038 147.389 167.477 152.297C165.959 157.204 163.765 161.266 160.896 164.481C158.069 167.696 154.694 170.087 150.77 171.652C146.847 173.217 142.523 174 137.797 174C134 174 130.456 173.513 127.166 172.54C123.875 171.525 120.901 170.002 118.243 167.971C115.627 165.898 113.37 163.318 111.471 160.229C109.573 157.141 108.117 153.502 107.105 149.314C106.092 145.083 105.586 140.303 105.586 134.972V118.092C105.586 111.407 106.345 105.632 107.864 100.767C109.425 95.8593 111.64 91.7978 114.509 88.5825C117.378 85.3672 120.774 82.9768 124.698 81.4115C128.621 79.8461 132.946 79.0635 137.671 79.0635C141.468 79.0635 144.991 79.5711 148.239 80.5865C151.53 81.5596 154.504 83.0826 157.162 85.1556C159.82 87.1864 162.077 89.7459 163.934 92.8343C165.832 95.9227 167.288 99.5823 168.3 103.813C169.313 108.001 169.819 112.761 169.819 118.092ZM148.492 137.574V115.363C148.492 112.401 148.324 109.821 147.986 107.621C147.691 105.421 147.227 103.559 146.594 102.036C146.003 100.513 145.265 99.2861 144.379 98.3554C143.493 97.3823 142.48 96.6843 141.341 96.2612C140.244 95.7958 139.021 95.5631 137.671 95.5631C135.983 95.5631 134.464 95.9227 133.114 96.642C131.806 97.3189 130.688 98.4188 129.76 99.9419C128.832 101.465 128.115 103.496 127.609 106.034C127.145 108.572 126.913 111.682 126.913 115.363V137.574C126.913 140.578 127.06 143.201 127.355 145.443C127.693 147.643 128.157 149.525 128.748 151.091C129.381 152.614 130.14 153.862 131.026 154.835C131.912 155.766 132.924 156.443 134.064 156.866C135.203 157.289 136.447 157.5 137.797 157.5C139.443 157.5 140.919 157.162 142.227 156.485C143.535 155.808 144.653 154.708 145.581 153.185C146.552 151.62 147.269 149.568 147.733 147.029C148.239 144.449 148.492 141.297 148.492 137.574Z" fill="#C4EE4A"/>
<path d="M235 118.092V134.972C235 141.614 234.22 147.389 232.659 152.297C231.14 157.204 228.946 161.266 226.077 164.481C223.25 167.696 219.875 170.087 215.952 171.652C212.028 173.217 207.704 174 202.978 174C199.181 174 195.638 173.513 192.347 172.54C189.056 171.525 186.082 170.002 183.424 167.971C180.808 165.898 178.551 163.318 176.652 160.229C174.754 157.141 173.298 153.502 172.286 149.314C171.273 145.083 170.767 140.303 170.767 134.972V118.092C170.767 111.407 171.526 105.632 173.045 100.767C174.606 95.8593 176.821 91.7978 179.69 88.5825C182.559 85.3672 185.955 82.9768 189.879 81.4115C193.802 79.8461 198.127 79.0635 202.852 79.0635C206.649 79.0635 210.172 79.5711 213.42 80.5865C216.711 81.5596 219.685 83.0826 222.343 85.1556C225.001 87.1864 227.258 89.7459 229.115 92.8343C231.013 95.9227 232.469 99.5823 233.481 103.813C234.494 108.001 235 112.761 235 118.092ZM213.673 137.574V115.363C213.673 112.401 213.505 109.821 213.167 107.621C212.872 105.421 212.408 103.559 211.775 102.036C211.184 100.513 210.446 99.2861 209.56 98.3554C208.674 97.3823 207.661 96.6843 206.522 96.2612C205.425 95.7958 204.202 95.5631 202.852 95.5631C201.164 95.5631 199.645 95.9227 198.295 96.642C196.988 97.3189 195.87 98.4188 194.941 99.9419C194.013 101.465 193.296 103.496 192.79 106.034C192.326 108.572 192.094 111.682 192.094 115.363V137.574C192.094 140.578 192.241 143.201 192.537 145.443C192.874 147.643 193.338 149.525 193.929 151.091C194.562 152.614 195.321 153.862 196.207 154.835C197.093 155.766 198.106 156.443 199.245 156.866C200.384 157.289 201.628 157.5 202.978 157.5C204.624 157.5 206.1 157.162 207.408 156.485C208.716 155.808 209.834 154.708 210.762 153.185C211.733 151.62 212.45 149.568 212.914 147.029C213.42 144.449 213.673 141.297 213.673 137.574Z" fill="#C4EE4A"/>
</g>
<defs>
<filter id="filter0_f_809_5" x="0" y="0" width="266" height="224" filterUnits="userSpaceOnUse" color-interpolation-filters="sRGB">
<feFlood flood-opacity="0" result="BackgroundImageFix"/>
<feBlend mode="normal" in="SourceGraphic" in2="BackgroundImageFix" result="shape"/>
<feGaussianBlur stdDeviation="10" result="effect1_foregroundBlur_809_5"/>
</filter>
<filter id="filter1_d_809_5" x="89" y="30" width="106" height="76" filterUnits="userSpaceOnUse" color-interpolation-filters="sRGB">
<feFlood flood-opacity="0" result="BackgroundImageFix"/>
<feColorMatrix in="SourceAlpha" type="matrix" values="0 0 0 0 0 0 0 0 0 0 0 0 0 0 0 0 0 0 127 0" result="hardAlpha"/>
<feOffset dx="6" dy="7"/>
<feGaussianBlur stdDeviation="5"/>
<feComposite in2="hardAlpha" operator="out"/>
<feColorMatrix type="matrix" values="0 0 0 0 0 0 0 0 0 0 0 0 0 0 0 0 0 0 0.25 0"/>
<feBlend mode="normal" in2="BackgroundImageFix" result="effect1_dropShadow_809_5"/>
<feBlend mode="normal" in="SourceGraphic" in2="effect1_dropShadow_809_5" result="shape"/>
</filter>
<filter id="filter2_d_809_5" x="34" y="76" width="217" height="115" filterUnits="userSpaceOnUse" color-interpolation-filters="sRGB">
<feFlood flood-opacity="0" result="BackgroundImageFix"/>
<feColorMatrix in="SourceAlpha" type="matrix" values="0 0 0 0 0 0 0 0 0 0 0 0 0 0 0 0 0 0 127 0" result="hardAlpha"/>
<feOffset dx="6" dy="7"/>
<feGaussianBlur stdDeviation="5"/>
<feComposite in2="hardAlpha" operator="out"/>
<feColorMatrix type="matrix" values="0 0 0 0 0 0 0 0 0 0 0 0 0 0 0 0 0 0 0.25 0"/>
<feBlend mode="normal" in2="BackgroundImageFix" result="effect1_dropShadow_809_5"/>
<feBlend mode="normal" in="SourceGraphic" in2="effect1_dropShadow_809_5" result="shape"/>
</filter>
<radialGradient id="paint0_radial_809_5" cx="0" cy="0" r="1" gradientUnits="userSpaceOnUse" gradientTransform="translate(133 112) rotate(90) scale(92 113)">
<stop stop-color="white"/>
<stop offset="0.0885417" stop-color="#95EDFF"/>
<stop offset="1" stop-color="#95EDFF" stop-opacity="0"/>
</radialGradient>
</defs>
</svg>
