<svg width="255" height="190" viewBox="0 0 255 190" fill="none" xmlns="http://www.w3.org/2000/svg">
<g filter="url(#filter0_f_709_2)">
<ellipse cx="122" cy="97.5" rx="113" ry="61.5" fill="url(#paint0_radial_709_2)"/>
</g>
<g filter="url(#filter1_d_709_2)">
<path d="M185.42 90.0789V87.1254C185.42 85.003 185.88 83.0724 186.799 81.3335C187.718 79.5947 189.097 78.2011 190.936 77.1526C192.775 76.1042 195.06 75.58 197.793 75.58C200.602 75.58 202.926 76.1042 204.764 77.1526C206.603 78.2011 207.969 79.5947 208.863 81.3335C209.783 83.0724 210.242 85.003 210.242 87.1254V90.0789C210.242 92.1501 209.783 94.0552 208.863 95.794C207.969 97.5328 206.603 98.9265 204.764 99.9749C202.951 101.023 200.666 101.548 197.908 101.548C195.124 101.548 192.813 101.023 190.974 99.9749C189.136 98.9265 187.744 97.5328 186.799 95.794C185.88 94.0552 185.42 92.1501 185.42 90.0789ZM193.694 87.1254V90.0789C193.694 90.846 193.847 91.5748 194.154 92.2652C194.46 92.9556 194.92 93.5182 195.533 93.9529C196.171 94.362 196.95 94.5666 197.869 94.5666C198.814 94.5666 199.58 94.362 200.168 93.9529C200.755 93.5182 201.189 92.9556 201.47 92.2652C201.777 91.5748 201.93 90.846 201.93 90.0789V87.1254C201.93 86.3071 201.777 85.5528 201.47 84.8623C201.189 84.1719 200.742 83.6221 200.129 83.213C199.517 82.7783 198.738 82.5609 197.793 82.5609C196.899 82.5609 196.146 82.7783 195.533 83.213C194.92 83.6221 194.46 84.1719 194.154 84.8623C193.847 85.5528 193.694 86.3071 193.694 87.1254ZM211.889 121.493V118.54C211.889 116.443 212.349 114.525 213.268 112.786C214.213 111.047 215.605 109.654 217.444 108.605C219.308 107.557 221.606 107.033 224.339 107.033C227.148 107.033 229.459 107.557 231.272 108.605C233.111 109.654 234.477 111.047 235.371 112.786C236.29 114.525 236.75 116.443 236.75 118.54V121.493C236.75 123.59 236.29 125.508 235.371 127.247C234.477 128.985 233.124 130.379 231.311 131.427C229.497 132.476 227.212 133 224.454 133C221.67 133 219.346 132.476 217.482 131.427C215.618 130.379 214.213 128.985 213.268 127.247C212.349 125.508 211.889 123.59 211.889 121.493ZM220.202 118.54V121.493C220.202 122.286 220.393 123.027 220.776 123.718C221.159 124.408 221.67 124.971 222.309 125.405C222.947 125.815 223.649 126.019 224.415 126.019C225.59 126.019 226.458 125.815 227.02 125.405C227.608 124.971 227.991 124.408 228.169 123.718C228.374 123.027 228.476 122.286 228.476 121.493V118.54C228.476 117.747 228.323 117.005 228.016 116.315C227.71 115.624 227.25 115.075 226.637 114.666C226.024 114.231 225.258 114.013 224.339 114.013C223.42 114.013 222.653 114.231 222.04 114.666C221.428 115.075 220.968 115.624 220.661 116.315C220.355 117.005 220.202 117.747 220.202 118.54ZM227.557 84.4021L200.321 128.052L194.307 125.022L221.543 81.3719L227.557 84.4021Z" fill="#C4EE4A" fill-opacity="0.8"/>
<path d="M101.379 90.9886L86.6005 87.4091L91.4532 45.1364H138.381V60.0227H106.618L104.798 76.4432C105.68 75.9129 107.169 75.2879 109.265 74.5682C111.397 73.8106 113.75 73.4318 116.323 73.4318C120.294 73.4318 123.804 74.0568 126.856 75.3068C129.944 76.5189 132.554 78.3182 134.686 80.7045C136.818 83.053 138.418 85.9508 139.484 89.3977C140.587 92.8447 141.138 96.7841 141.138 101.216C141.138 104.777 140.568 108.223 139.429 111.557C138.326 114.852 136.616 117.826 134.3 120.477C132.021 123.091 129.135 125.174 125.643 126.727C122.15 128.242 118.014 129 113.235 129C109.669 129 106.195 128.432 102.813 127.295C99.4307 126.159 96.3794 124.53 93.6589 122.409C90.9752 120.25 88.843 117.655 87.2622 114.625C85.7182 111.557 84.9645 108.129 85.0013 104.341H103.695C103.805 106.348 104.265 108.091 105.074 109.568C105.883 111.045 106.967 112.201 108.327 113.034C109.724 113.83 111.323 114.227 113.125 114.227C114.963 114.227 116.489 113.848 117.702 113.091C118.915 112.333 119.871 111.292 120.569 109.966C121.268 108.64 121.764 107.125 122.058 105.42C122.352 103.678 122.499 101.841 122.499 99.9091C122.499 97.8636 122.279 96.0265 121.838 94.3977C121.433 92.7689 120.771 91.3864 119.852 90.25C118.933 89.0758 117.739 88.1856 116.268 87.5795C114.834 86.9735 113.106 86.6705 111.084 86.6705C108.401 86.6705 106.287 87.1439 104.743 88.0909C103.199 89.0379 102.078 90.0038 101.379 90.9886Z" fill="#C4EE4A"/>
<path d="M198 78.9432V94.0568C198 100.004 197.32 105.174 195.96 109.568C194.636 113.962 192.725 117.598 190.225 120.477C187.762 123.356 184.821 125.496 181.402 126.898C177.983 128.299 174.214 129 170.097 129C166.788 129 163.7 128.564 160.833 127.693C157.965 126.784 155.374 125.42 153.057 123.602C150.778 121.746 148.811 119.436 147.157 116.67C145.503 113.905 144.234 110.648 143.352 106.898C142.47 103.11 142.029 98.8295 142.029 94.0568V78.9432C142.029 72.9583 142.69 67.7879 144.014 63.4318C145.374 59.0379 147.304 55.4015 149.804 52.5227C152.304 49.6439 155.263 47.5038 158.682 46.1023C162.101 44.7008 165.869 44 169.987 44C173.295 44 176.365 44.4545 179.196 45.3636C182.063 46.2348 184.655 47.5985 186.971 49.4545C189.287 51.2727 191.254 53.5644 192.872 56.3295C194.526 59.0947 195.794 62.3712 196.677 66.1591C197.559 69.9091 198 74.1705 198 78.9432ZM179.416 96.3864V76.5C179.416 73.8485 179.269 71.5379 178.975 69.5682C178.718 67.5985 178.314 65.9318 177.762 64.5682C177.247 63.2045 176.604 62.1061 175.832 61.2727C175.06 60.4015 174.178 59.7765 173.185 59.3977C172.229 58.9811 171.163 58.7727 169.987 58.7727C168.516 58.7727 167.193 59.0947 166.016 59.7386C164.877 60.3447 163.902 61.3295 163.094 62.6932C162.285 64.0568 161.66 65.875 161.219 68.1477C160.814 70.4205 160.612 73.2045 160.612 76.5V96.3864C160.612 99.0758 160.741 101.424 160.998 103.432C161.292 105.402 161.697 107.087 162.211 108.489C162.763 109.852 163.425 110.97 164.197 111.841C164.969 112.674 165.851 113.28 166.844 113.659C167.836 114.038 168.921 114.227 170.097 114.227C171.531 114.227 172.817 113.924 173.957 113.318C175.097 112.712 176.071 111.727 176.88 110.364C177.725 108.962 178.35 107.125 178.755 104.852C179.196 102.542 179.416 99.7197 179.416 96.3864Z" fill="#C4EE4A"/>
</g>
<circle cx="145" cy="92" r="91.5" stroke="#C4EE4A"/>
<circle cx="141" cy="98" r="91.5" stroke="#C4EE4A"/>
<defs>
<filter id="filter0_f_709_2" x="-11" y="16" width="266" height="163" filterUnits="userSpaceOnUse" color-interpolation-filters="sRGB">
<feFlood flood-opacity="0" result="BackgroundImageFix"/>
<feBlend mode="normal" in="SourceGraphic" in2="BackgroundImageFix" result="shape"/>
<feGaussianBlur stdDeviation="10" result="effect1_foregroundBlur_709_2"/>
</filter>
<filter id="filter1_d_709_2" x="81" y="41" width="171.75" height="109" filterUnits="userSpaceOnUse" color-interpolation-filters="sRGB">
<feFlood flood-opacity="0" result="BackgroundImageFix"/>
<feColorMatrix in="SourceAlpha" type="matrix" values="0 0 0 0 0 0 0 0 0 0 0 0 0 0 0 0 0 0 127 0" result="hardAlpha"/>
<feOffset dx="6" dy="7"/>
<feGaussianBlur stdDeviation="5"/>
<feComposite in2="hardAlpha" operator="out"/>
<feColorMatrix type="matrix" values="0 0 0 0 0 0 0 0 0 0 0 0 0 0 0 0 0 0 0.25 0"/>
<feBlend mode="normal" in2="BackgroundImageFix" result="effect1_dropShadow_709_2"/>
<feBlend mode="normal" in="SourceGraphic" in2="effect1_dropShadow_709_2" result="shape"/>
</filter>
<radialGradient id="paint0_radial_709_2" cx="0" cy="0" r="1" gradientUnits="userSpaceOnUse" gradientTransform="translate(122 97.5) rotate(90) scale(61.5 113)">
<stop stop-color="white"/>
<stop offset="0.171875" stop-color="#95EDFF"/>
<stop offset="1" stop-color="#95EDFF" stop-opacity="0"/>
</radialGradient>
</defs>
</svg>
