<svg width="172" height="109" viewBox="0 0 172 109" fill="none" xmlns="http://www.w3.org/2000/svg">
<g filter="url(#filter0_d_0_1104)">
<path d="M104.42 49.0789V46.1254C104.42 44.003 104.88 42.0724 105.799 40.3335C106.718 38.5947 108.097 37.2011 109.936 36.1526C111.775 35.1042 114.06 34.58 116.793 34.58C119.602 34.58 121.926 35.1042 123.764 36.1526C125.603 37.2011 126.969 38.5947 127.863 40.3335C128.783 42.0724 129.242 44.003 129.242 46.1254V49.0789C129.242 51.1501 128.783 53.0552 127.863 54.794C126.969 56.5328 125.603 57.9265 123.764 58.9749C121.951 60.0233 119.666 60.5475 116.908 60.5475C114.124 60.5475 111.813 60.0233 109.974 58.9749C108.136 57.9265 106.744 56.5328 105.799 54.794C104.88 53.0552 104.42 51.1501 104.42 49.0789ZM112.694 46.1254V49.0789C112.694 49.846 112.847 50.5748 113.154 51.2652C113.46 51.9556 113.92 52.5182 114.533 52.9529C115.171 53.362 115.95 53.5666 116.869 53.5666C117.814 53.5666 118.58 53.362 119.168 52.9529C119.755 52.5182 120.189 51.9556 120.47 51.2652C120.777 50.5748 120.93 49.846 120.93 49.0789V46.1254C120.93 45.3071 120.777 44.5528 120.47 43.8623C120.189 43.1719 119.742 42.6221 119.129 42.213C118.517 41.7783 117.738 41.5609 116.793 41.5609C115.899 41.5609 115.146 41.7783 114.533 42.213C113.92 42.6221 113.46 43.1719 113.154 43.8623C112.847 44.5528 112.694 45.3071 112.694 46.1254ZM130.889 80.493V77.5395C130.889 75.4427 131.349 73.5249 132.268 71.786C133.213 70.0472 134.605 68.6536 136.444 67.6051C138.308 66.5567 140.606 66.0325 143.339 66.0325C146.148 66.0325 148.459 66.5567 150.272 67.6051C152.111 68.6536 153.477 70.0472 154.371 71.786C155.29 73.5249 155.75 75.4427 155.75 77.5395V80.493C155.75 82.5898 155.29 84.5077 154.371 86.2465C153.477 87.9853 152.124 89.379 150.311 90.4274C148.497 91.4758 146.212 92 143.454 92C140.67 92 138.346 91.4758 136.482 90.4274C134.618 89.379 133.213 87.9853 132.268 86.2465C131.349 84.5077 130.889 82.5898 130.889 80.493ZM139.202 77.5395V80.493C139.202 81.2857 139.393 82.0273 139.776 82.7177C140.159 83.4081 140.67 83.9707 141.309 84.4054C141.947 84.8145 142.649 85.0191 143.415 85.0191C144.59 85.0191 145.458 84.8145 146.02 84.4054C146.608 83.9707 146.991 83.4081 147.169 82.7177C147.374 82.0273 147.476 81.2857 147.476 80.493V77.5395C147.476 76.7468 147.323 76.0053 147.016 75.3148C146.71 74.6244 146.25 74.0746 145.637 73.6655C145.024 73.2308 144.258 73.0134 143.339 73.0134C142.42 73.0134 141.653 73.2308 141.04 73.6655C140.428 74.0746 139.968 74.6244 139.661 75.3148C139.355 76.0053 139.202 76.7468 139.202 77.5395ZM146.557 43.4021L119.321 87.052L113.307 84.0218L140.543 40.3719L146.557 43.4021Z" fill="#C4EE4A" fill-opacity="0.8"/>
<g filter="url(#filter1_d_0_1104)">
<path d="M20.3791 49.9886L5.60046 46.4091L10.4532 4.13636H57.3809V19.0227H25.6178L23.7981 35.4432C24.6804 34.9129 26.1693 34.2879 28.2647 33.5682C30.397 32.8106 32.7498 32.4318 35.3232 32.4318C39.2936 32.4318 42.8044 33.0568 45.8557 34.3068C48.9438 35.5189 51.554 37.3182 53.6862 39.7045C55.8185 42.053 57.4176 44.9508 58.4838 48.3977C59.5866 51.8447 60.1381 55.7841 60.1381 60.2159C60.1381 63.7765 59.5683 67.2235 58.4286 70.5568C57.3257 73.8523 55.6163 76.8258 53.3002 79.4773C51.0209 82.0909 48.135 84.1742 44.6426 85.7273C41.1501 87.2424 37.0143 88 32.2351 88C28.6691 88 25.195 87.4318 21.8129 86.2954C18.4307 85.1591 15.3794 83.5303 12.6589 81.4091C9.97524 79.25 7.843 76.6553 6.26219 73.625C4.71816 70.5568 3.96452 67.1288 4.00128 63.3409H22.6952C22.8055 65.3485 23.265 67.0909 24.0738 68.5682C24.8826 70.0454 25.9671 71.2008 27.3273 72.0341C28.7243 72.8295 30.3234 73.2273 32.1248 73.2273C33.963 73.2273 35.4886 72.8485 36.7018 72.0909C37.915 71.3333 38.8708 70.2917 39.5693 68.9659C40.2678 67.6401 40.7641 66.125 41.0582 64.4205C41.3523 62.678 41.4993 60.8409 41.4993 58.9091C41.4993 56.8636 41.2788 55.0265 40.8376 53.3977C40.4332 51.7689 39.7715 50.3864 38.8524 49.25C37.9333 48.0758 36.7386 47.1856 35.268 46.5795C33.8343 45.9735 32.1064 45.6705 30.0845 45.6705C27.4008 45.6705 25.2869 46.1439 23.7429 47.0909C22.1989 48.0379 21.0776 49.0038 20.3791 49.9886Z" fill="#C4EE4A"/>
<path d="M117 37.9432V53.0568C117 59.0038 116.32 64.1742 114.96 68.5682C113.636 72.9621 111.725 76.5985 109.225 79.4773C106.762 82.3561 103.821 84.4962 100.402 85.8977C96.9827 87.2992 93.2145 88 89.097 88C85.7884 88 82.7003 87.5644 79.8328 86.6932C76.9653 85.7841 74.3735 84.4205 72.0575 82.6023C69.7782 80.7462 67.8114 78.4356 66.157 75.6704C64.5027 72.9053 63.2344 69.6477 62.3521 65.8977C61.4698 62.1098 61.0286 57.8295 61.0286 53.0568V37.9432C61.0286 31.9583 61.6904 26.7879 63.0138 22.4318C64.374 18.0379 66.3041 14.4015 68.804 11.5227C71.3038 8.64394 74.2632 6.50379 77.6822 5.10227C81.1011 3.70076 84.8693 3 88.9867 3C92.2954 3 95.3651 3.45455 98.1958 4.36364C101.063 5.23485 103.655 6.59848 105.971 8.45455C108.287 10.2727 110.254 12.5644 111.872 15.3295C113.526 18.0947 114.794 21.3712 115.677 25.1591C116.559 28.9091 117 33.1705 117 37.9432ZM98.4164 55.3864V35.5C98.4164 32.8485 98.2693 30.5379 97.9753 28.5682C97.7179 26.5985 97.3135 24.9318 96.7621 23.5682C96.2474 22.2045 95.604 21.1061 94.832 20.2727C94.06 19.4015 93.1777 18.7765 92.1851 18.3977C91.2293 17.9811 90.1632 17.7727 88.9867 17.7727C87.5162 17.7727 86.1928 18.0947 85.0164 18.7386C83.8767 19.3447 82.9025 20.3295 82.0937 21.6932C81.2849 23.0568 80.66 24.875 80.2188 27.1477C79.8144 29.4205 79.6122 32.2045 79.6122 35.5V55.3864C79.6122 58.0758 79.7409 60.4242 79.9982 62.4318C80.2923 64.4015 80.6967 66.0871 81.2114 67.4886C81.7628 68.8523 82.4246 69.9697 83.1966 70.8409C83.9686 71.6742 84.8509 72.2803 85.8435 72.6591C86.8361 73.0379 87.9206 73.2273 89.097 73.2273C90.5308 73.2273 91.8175 72.9242 92.9571 72.3182C94.0968 71.7121 95.071 70.7273 95.8798 69.3636C96.7253 67.9621 97.3503 66.125 97.7547 63.8523C98.1958 61.5417 98.4164 58.7197 98.4164 55.3864Z" fill="#C4EE4A"/>
</g>
</g>
<defs>
<filter id="filter0_d_0_1104" x="0" y="0" width="171.75" height="109" filterUnits="userSpaceOnUse" color-interpolation-filters="sRGB">
<feFlood flood-opacity="0" result="BackgroundImageFix"/>
<feColorMatrix in="SourceAlpha" type="matrix" values="0 0 0 0 0 0 0 0 0 0 0 0 0 0 0 0 0 0 127 0" result="hardAlpha"/>
<feOffset dx="6" dy="7"/>
<feGaussianBlur stdDeviation="5"/>
<feComposite in2="hardAlpha" operator="out"/>
<feColorMatrix type="matrix" values="0 0 0 0 0 0 0 0 0 0 0 0 0 0 0 0 0 0 0.25 0"/>
<feBlend mode="normal" in2="BackgroundImageFix" result="effect1_dropShadow_0_1104"/>
<feBlend mode="normal" in="SourceGraphic" in2="effect1_dropShadow_0_1104" result="shape"/>
</filter>
<filter id="filter1_d_0_1104" x="0" y="0" width="133" height="105" filterUnits="userSpaceOnUse" color-interpolation-filters="sRGB">
<feFlood flood-opacity="0" result="BackgroundImageFix"/>
<feColorMatrix in="SourceAlpha" type="matrix" values="0 0 0 0 0 0 0 0 0 0 0 0 0 0 0 0 0 0 127 0" result="hardAlpha"/>
<feOffset dx="6" dy="7"/>
<feGaussianBlur stdDeviation="5"/>
<feComposite in2="hardAlpha" operator="out"/>
<feColorMatrix type="matrix" values="0 0 0 0 0 0 0 0 0 0 0 0 0 0 0 0 0 0 0.25 0"/>
<feBlend mode="normal" in2="BackgroundImageFix" result="effect1_dropShadow_0_1104"/>
<feBlend mode="normal" in="SourceGraphic" in2="effect1_dropShadow_0_1104" result="shape"/>
</filter>
</defs>
</svg>
